STARTFONT 2.1
FONT -FontForge-Bitstream Vera Sans Mono-Book-R-Normal-SansMono--24-240-75-75-P-139-ISO8859-1
SIZE 24 75 75
FONTBOUNDINGBOX 15 28 0 -6
COMMENT "Generated by fontforge, http://fontforge.sourceforge.net"
COMMENT "Copyright (c) 2003 by Bitstream, Inc. All Rights Reserved."
STARTPROPERTIES 40
FOUNDRY "FontForge"
FAMILY_NAME "Bitstream Vera Sans Mono"
WEIGHT_NAME "Book"
SLANT "R"
SETWIDTH_NAME "Normal"
ADD_STYLE_NAME "SansMono"
PIXEL_SIZE 24
POINT_SIZE 240
RESOLUTION_X 75
RESOLUTION_Y 75
SPACING "P"
AVERAGE_WIDTH 139
CHARSET_REGISTRY "ISO8859"
CHARSET_ENCODING "1"
FONTNAME_REGISTRY ""
CHARSET_COLLECTIONS "ISO8859-9 ISOLatin1Encoding"
FONT_NAME "BitstreamVeraSansMono-Roman"
FACE_NAME "Bitstream Vera Sans Mono"
COPYRIGHT "Copyright (c) 2003 by Bitstream, Inc. All Rights Reserved."
FONT_VERSION "Release 1.10"
FONT_ASCENT 18
FONT_DESCENT 6
UNDERLINE_POSITION -3
UNDERLINE_THICKNESS 2
X_HEIGHT 12
CAP_HEIGHT 17
RAW_ASCENT 759
RAW_DESCENT 240
NORM_SPACE 14
RELATIVE_WEIGHT 40
RELATIVE_SETWIDTH 50
SUPERSCRIPT_X 0
SUPERSCRIPT_Y 6
SUPERSCRIPT_SIZE 14
SUBSCRIPT_X 0
SUBSCRIPT_Y -5
SUBSCRIPT_SIZE 14
FIGURE_WIDTH 14
AVG_LOWERCASE_WIDTH 140
AVG_UPPERCASE_WIDTH 140
ENDPROPERTIES
CHARS 269
STARTCHAR space
ENCODING 32
SWIDTH 602 0
DWIDTH 14 0
BBX 1 1 0 0
BITMAP
00
ENDCHAR
STARTCHAR exclam
ENCODING 33
SWIDTH 602 0
DWIDTH 14 0
BBX 2 18 6 0
BITMAP
C0
C0
C0
C0
C0
C0
C0
C0
C0
C0
C0
C0
00
00
00
C0
C0
C0
ENDCHAR
STARTCHAR quotedbl
ENCODING 34
SWIDTH 602 0
DWIDTH 14 0
BBX 6 7 4 11
BITMAP
CC
CC
CC
CC
CC
CC
CC
ENDCHAR
STARTCHAR numbersign
ENCODING 35
SWIDTH 602 0
DWIDTH 14 0
BBX 14 18 0 0
BITMAP
0330
0230
0630
0630
0620
7FFC
7FFC
0C60
0C40
0CC0
08C0
FFF8
FFF8
1980
1180
3180
3180
3300
ENDCHAR
STARTCHAR dollar
ENCODING 36
SWIDTH 602 0
DWIDTH 14 0
BBX 11 22 2 -4
BITMAP
0400
0400
0400
1F80
7FC0
E440
C400
C400
C400
7C00
3F80
07C0
04E0
0460
0460
84E0
FFC0
7F00
0400
0400
0400
0400
ENDCHAR
STARTCHAR percent
ENCODING 37
SWIDTH 602 0
DWIDTH 14 0
BBX 14 18 0 0
BITMAP
3800
7C00
C600
C600
C600
7C18
3830
00E0
0180
0600
1C00
3070
60F8
018C
018C
018C
00F8
0070
ENDCHAR
STARTCHAR ampersand
ENCODING 38
SWIDTH 602 0
DWIDTH 14 0
BBX 14 18 1 0
BITMAP
0F00
1F80
3880
3000
3000
3000
1800
1C00
3C00
660C
C30C
C38C
C1DC
C0F8
E070
70F8
3FD8
1F9C
ENDCHAR
STARTCHAR quotesingle
ENCODING 39
SWIDTH 602 0
DWIDTH 14 0
BBX 2 7 6 11
BITMAP
C0
C0
C0
C0
C0
C0
C0
ENDCHAR
STARTCHAR parenleft
ENCODING 40
SWIDTH 602 0
DWIDTH 14 0
BBX 5 21 5 -3
BITMAP
18
30
30
60
60
60
C0
C0
C0
C0
C0
C0
C0
C0
C0
60
60
60
30
30
18
ENDCHAR
STARTCHAR parenright
ENCODING 41
SWIDTH 602 0
DWIDTH 14 0
BBX 5 21 4 -3
BITMAP
C0
60
60
30
30
30
18
18
18
18
18
18
18
18
18
30
30
30
60
60
C0
ENDCHAR
STARTCHAR asterisk
ENCODING 42
SWIDTH 602 0
DWIDTH 14 0
BBX 11 10 2 8
BITMAP
0400
0400
C460
75C0
1F00
1F00
75C0
C460
0400
0400
ENDCHAR
STARTCHAR plus
ENCODING 43
SWIDTH 602 0
DWIDTH 14 0
BBX 12 12 1 2
BITMAP
0600
0600
0600
0600
0600
FFF0
FFF0
0600
0600
0600
0600
0600
ENDCHAR
STARTCHAR comma
ENCODING 44
SWIDTH 602 0
DWIDTH 14 0
BBX 4 7 5 -3
BITMAP
70
70
70
70
60
E0
C0
ENDCHAR
STARTCHAR hyphen
ENCODING 45
SWIDTH 602 0
DWIDTH 14 0
BBX 6 2 4 6
BITMAP
FC
FC
ENDCHAR
STARTCHAR period
ENCODING 46
SWIDTH 602 0
DWIDTH 14 0
BBX 3 4 6 0
BITMAP
E0
E0
E0
E0
ENDCHAR
STARTCHAR slash
ENCODING 47
SWIDTH 602 0
DWIDTH 14 0
BBX 11 20 1 -2
BITMAP
0060
00C0
00C0
0180
0180
0180
0300
0300
0600
0600
0C00
0C00
1800
1800
3000
3000
3000
6000
6000
C000
ENDCHAR
STARTCHAR zero
ENCODING 48
SWIDTH 602 0
DWIDTH 14 0
BBX 11 18 2 0
BITMAP
1F00
3F80
71C0
60C0
E0C0
C060
C060
C060
CE60
CE60
C060
C060
C060
E0C0
60C0
71C0
3F80
1F00
ENDCHAR
STARTCHAR one
ENCODING 49
SWIDTH 602 0
DWIDTH 14 0
BBX 10 18 3 0
BITMAP
3C00
FC00
CC00
0C00
0C00
0C00
0C00
0C00
0C00
0C00
0C00
0C00
0C00
0C00
0C00
0C00
FFC0
FFC0
ENDCHAR
STARTCHAR two
ENCODING 50
SWIDTH 602 0
DWIDTH 14 0
BBX 11 18 2 0
BITMAP
3F00
FF80
C0C0
0060
0060
0060
0060
00E0
01C0
0180
0300
0600
0E00
1800
3000
6000
FFE0
FFE0
ENDCHAR
STARTCHAR three
ENCODING 51
SWIDTH 602 0
DWIDTH 14 0
BBX 11 18 2 0
BITMAP
1F00
7FC0
40C0
0060
0060
0060
0060
01C0
1F80
1F80
01C0
0060
0060
0060
0060
81C0
FFC0
7F00
ENDCHAR
STARTCHAR four
ENCODING 52
SWIDTH 602 0
DWIDTH 14 0
BBX 12 18 1 0
BITMAP
01C0
03C0
02C0
06C0
0CC0
0CC0
18C0
18C0
30C0
60C0
60C0
C0C0
FFF0
FFF0
00C0
00C0
00C0
00C0
ENDCHAR
STARTCHAR five
ENCODING 53
SWIDTH 602 0
DWIDTH 14 0
BBX 11 18 2 0
BITMAP
7FC0
7FC0
6000
6000
6000
6000
7F00
7F80
41C0
00E0
0060
0060
0060
0060
00E0
81C0
FF80
7F00
ENDCHAR
STARTCHAR six
ENCODING 54
SWIDTH 602 0
DWIDTH 14 0
BBX 11 18 2 0
BITMAP
0F80
3FC0
3840
6000
6000
C000
CF00
DFC0
F1C0
E0E0
C060
C060
C060
C060
60E0
71C0
3FC0
1F00
ENDCHAR
STARTCHAR seven
ENCODING 55
SWIDTH 602 0
DWIDTH 14 0
BBX 11 18 2 0
BITMAP
FFE0
FFE0
00C0
00C0
01C0
0180
0180
0300
0300
0700
0600
0600
0C00
0C00
1C00
1800
1800
3000
ENDCHAR
STARTCHAR eight
ENCODING 56
SWIDTH 602 0
DWIDTH 14 0
BBX 11 18 2 0
BITMAP
1F00
7FC0
E0C0
C060
C060
C060
C060
60C0
3F80
3F80
60C0
C060
C060
C060
C060
E0E0
7FC0
1F00
ENDCHAR
STARTCHAR nine
ENCODING 57
SWIDTH 602 0
DWIDTH 14 0
BBX 11 18 2 0
BITMAP
1F00
7F80
71C0
E0C0
C060
C060
C060
C060
E0E0
61E0
7F60
1E60
0060
00C0
00C0
4180
7F80
3E00
ENDCHAR
STARTCHAR colon
ENCODING 58
SWIDTH 602 0
DWIDTH 14 0
BBX 3 12 6 0
BITMAP
E0
E0
E0
E0
00
00
00
00
E0
E0
E0
E0
ENDCHAR
STARTCHAR semicolon
ENCODING 59
SWIDTH 602 0
DWIDTH 14 0
BBX 4 15 5 -3
BITMAP
70
70
70
70
00
00
00
00
70
70
70
70
60
E0
C0
ENDCHAR
STARTCHAR less
ENCODING 60
SWIDTH 602 0
DWIDTH 14 0
BBX 12 12 1 1
BITMAP
0010
00F0
03E0
0F80
7C00
F000
F000
7C00
0F80
03E0
00F0
0010
ENDCHAR
STARTCHAR equal
ENCODING 61
SWIDTH 602 0
DWIDTH 14 0
BBX 12 7 1 4
BITMAP
FFF0
FFF0
0000
0000
0000
FFF0
FFF0
ENDCHAR
STARTCHAR greater
ENCODING 62
SWIDTH 602 0
DWIDTH 14 0
BBX 12 12 1 1
BITMAP
8000
F000
7C00
1F00
03E0
00F0
00F0
03E0
1F00
7C00
F000
8000
ENDCHAR
STARTCHAR question
ENCODING 63
SWIDTH 602 0
DWIDTH 14 0
BBX 9 18 3 0
BITMAP
3E00
7F00
C380
8180
0180
0180
0300
0700
0E00
1C00
1800
1800
1800
0000
0000
1800
1800
1800
ENDCHAR
STARTCHAR at
ENCODING 64
SWIDTH 602 0
DWIDTH 14 0
BBX 14 20 1 -4
BITMAP
07E0
0FF0
3C38
301C
600C
61EC
C3FC
C71C
C60C
C60C
C60C
C60C
C71C
E3FC
61EC
7000
3800
1C00
0FF0
03F0
ENDCHAR
STARTCHAR A
ENCODING 65
SWIDTH 602 0
DWIDTH 14 0
BBX 12 18 1 0
BITMAP
0600
0F00
0F00
0F00
0F00
1980
1980
1980
3980
30C0
30C0
30C0
7FE0
7FE0
6060
6060
C030
C030
ENDCHAR
STARTCHAR B
ENCODING 66
SWIDTH 602 0
DWIDTH 14 0
BBX 11 18 1 0
BITMAP
FE00
FF80
C1C0
C0C0
C0C0
C0C0
C0C0
C180
FF80
FF80
C0C0
C060
C060
C060
C060
C0E0
FFC0
FF00
ENDCHAR
STARTCHAR C
ENCODING 67
SWIDTH 602 0
DWIDTH 14 0
BBX 11 18 1 0
BITMAP
0FC0
1FE0
3820
6000
6000
C000
C000
C000
C000
C000
C000
C000
C000
6000
6000
3820
1FE0
0FC0
ENDCHAR
STARTCHAR D
ENCODING 68
SWIDTH 602 0
DWIDTH 14 0
BBX 11 18 1 0
BITMAP
FE00
FF00
C380
C0C0
C0C0
C060
C060
C060
C060
C060
C060
C060
C060
C0C0
C0C0
C380
FF00
FE00
ENDCHAR
STARTCHAR E
ENCODING 69
SWIDTH 602 0
DWIDTH 14 0
BBX 11 18 1 0
BITMAP
FFE0
FFE0
C000
C000
C000
C000
C000
C000
FFC0
FFC0
C000
C000
C000
C000
C000
C000
FFE0
FFE0
ENDCHAR
STARTCHAR F
ENCODING 70
SWIDTH 602 0
DWIDTH 14 0
BBX 11 18 1 0
BITMAP
FFE0
FFE0
C000
C000
C000
C000
C000
C000
FFC0
FFC0
C000
C000
C000
C000
C000
C000
C000
C000
ENDCHAR
STARTCHAR G
ENCODING 71
SWIDTH 602 0
DWIDTH 14 0
BBX 12 18 1 0
BITMAP
0FC0
1FE0
3820
6000
6000
C000
C000
C000
C000
C1F0
C1F0
C030
C030
6030
6030
3830
1FF0
0FC0
ENDCHAR
STARTCHAR H
ENCODING 72
SWIDTH 602 0
DWIDTH 14 0
BBX 11 18 1 0
BITMAP
C060
C060
C060
C060
C060
C060
C060
C060
FFE0
FFE0
C060
C060
C060
C060
C060
C060
C060
C060
ENDCHAR
STARTCHAR I
ENCODING 73
SWIDTH 602 0
DWIDTH 14 0
BBX 10 18 2 0
BITMAP
FFC0
FFC0
0C00
0C00
0C00
0C00
0C00
0C00
0C00
0C00
0C00
0C00
0C00
0C00
0C00
0C00
FFC0
FFC0
ENDCHAR
STARTCHAR J
ENCODING 74
SWIDTH 602 0
DWIDTH 14 0
BBX 10 18 1 0
BITMAP
0FC0
0FC0
00C0
00C0
00C0
00C0
00C0
00C0
00C0
00C0
00C0
00C0
00C0
00C0
80C0
C180
FF80
7F00
ENDCHAR
STARTCHAR K
ENCODING 75
SWIDTH 602 0
DWIDTH 14 0
BBX 12 18 1 0
BITMAP
C070
C0E0
C1C0
C380
C700
CE00
DC00
F800
FC00
EE00
C600
C300
C380
C180
C0C0
C0E0
C060
C030
ENDCHAR
STARTCHAR L
ENCODING 76
SWIDTH 602 0
DWIDTH 14 0
BBX 11 18 1 0
BITMAP
C000
C000
C000
C000
C000
C000
C000
C000
C000
C000
C000
C000
C000
C000
C000
C000
FFE0
FFE0
ENDCHAR
STARTCHAR M
ENCODING 77
SWIDTH 602 0
DWIDTH 14 0
BBX 12 18 1 0
BITMAP
E070
E070
F0F0
F0F0
D0B0
D9B0
D9B0
C930
CF30
CF30
C630
C630
C030
C030
C030
C030
C030
C030
ENDCHAR
STARTCHAR N
ENCODING 78
SWIDTH 602 0
DWIDTH 14 0
BBX 11 18 1 0
BITMAP
E060
E060
F060
F060
D860
D860
D860
CC60
CC60
C660
C660
C360
C360
C360
C1E0
C1E0
C0E0
C0E0
ENDCHAR
STARTCHAR O
ENCODING 79
SWIDTH 602 0
DWIDTH 14 0
BBX 12 18 1 0
BITMAP
1F80
3FC0
70E0
6060
E060
C030
C030
C030
C030
C030
C030
C030
C030
E060
6060
70E0
3FC0
1F00
ENDCHAR
STARTCHAR P
ENCODING 80
SWIDTH 602 0
DWIDTH 14 0
BBX 11 18 1 0
BITMAP
FF00
FFC0
C1C0
C060
C060
C060
C060
C1C0
FFC0
FF00
C000
C000
C000
C000
C000
C000
C000
C000
ENDCHAR
STARTCHAR Q
ENCODING 81
SWIDTH 602 0
DWIDTH 14 0
BBX 12 21 1 -3
BITMAP
1F80
3FC0
70E0
6060
E060
C030
C030
C030
C030
C030
C030
C030
C030
E070
6060
70E0
3FC0
0F80
01C0
00E0
0040
ENDCHAR
STARTCHAR R
ENCODING 82
SWIDTH 602 0
DWIDTH 14 0
BBX 13 18 1 0
BITMAP
FF00
FFC0
C1C0
C060
C060
C060
C060
C0C0
FF80
FF80
C180
C0C0
C0E0
C060
C060
C030
C030
C018
ENDCHAR
STARTCHAR S
ENCODING 83
SWIDTH 602 0
DWIDTH 14 0
BBX 11 18 1 0
BITMAP
1F80
7FC0
6040
C000
C000
C000
C000
7000
7E00
1F80
01C0
00E0
0060
0060
0060
C0C0
FFC0
7F00
ENDCHAR
STARTCHAR T
ENCODING 84
SWIDTH 602 0
DWIDTH 14 0
BBX 12 18 1 0
BITMAP
FFF0
FFF0
0600
0600
0600
0600
0600
0600
0600
0600
0600
0600
0600
0600
0600
0600
0600
0600
ENDCHAR
STARTCHAR U
ENCODING 85
SWIDTH 602 0
DWIDTH 14 0
BBX 11 18 1 0
BITMAP
C060
C060
C060
C060
C060
C060
C060
C060
C060
C060
C060
C060
C060
C060
C060
60C0
7FC0
1F00
ENDCHAR
STARTCHAR V
ENCODING 86
SWIDTH 602 0
DWIDTH 14 0
BBX 12 18 1 0
BITMAP
C030
C030
6060
6060
6060
70E0
30C0
30C0
30C0
39C0
1980
1980
1980
0F80
0F00
0F00
0F00
0600
ENDCHAR
STARTCHAR W
ENCODING 87
SWIDTH 602 0
DWIDTH 14 0
BBX 14 18 0 0
BITMAP
C00C
C00C
C00C
E01C
6018
6318
6798
6798
6798
6798
74B8
3CF0
3CF0
3CF0
3870
3870
3870
3870
ENDCHAR
STARTCHAR X
ENCODING 88
SWIDTH 602 0
DWIDTH 14 0
BBX 12 18 1 0
BITMAP
E070
6060
70E0
30C0
1980
1980
0F00
0F00
0600
0F00
0F00
1B80
1980
31C0
30C0
60E0
6060
C030
ENDCHAR
STARTCHAR Y
ENCODING 89
SWIDTH 602 0
DWIDTH 14 0
BBX 14 18 0 0
BITMAP
E01C
6018
3038
3030
1860
1CE0
0CC0
0780
0780
0300
0300
0300
0300
0300
0300
0300
0300
0300
ENDCHAR
STARTCHAR Z
ENCODING 90
SWIDTH 602 0
DWIDTH 14 0
BBX 12 18 1 0
BITMAP
FFF0
FFF0
0070
00E0
00C0
01C0
0380
0300
0700
0E00
0C00
1C00
3800
3000
6000
E000
FFF0
FFF0
ENDCHAR
STARTCHAR bracketleft
ENCODING 91
SWIDTH 602 0
DWIDTH 14 0
BBX 5 21 5 -3
BITMAP
F8
F8
C0
C0
C0
C0
C0
C0
C0
C0
C0
C0
C0
C0
C0
C0
C0
C0
C0
F8
F8
ENDCHAR
STARTCHAR backslash
ENCODING 92
SWIDTH 602 0
DWIDTH 14 0
BBX 11 20 1 -2
BITMAP
C000
6000
6000
3000
3000
3000
1800
1800
0C00
0C00
0600
0600
0300
0300
0180
0180
0180
00C0
00C0
0060
ENDCHAR
STARTCHAR bracketright
ENCODING 93
SWIDTH 602 0
DWIDTH 14 0
BBX 5 21 4 -3
BITMAP
F8
F8
18
18
18
18
18
18
18
18
18
18
18
18
18
18
18
18
18
F8
F8
ENDCHAR
STARTCHAR asciicircum
ENCODING 94
SWIDTH 602 0
DWIDTH 14 0
BBX 13 7 1 11
BITMAP
0700
0F80
1DC0
18C0
3060
6030
E038
ENDCHAR
STARTCHAR underscore
ENCODING 95
SWIDTH 602 0
DWIDTH 14 0
BBX 12 2 0 -6
BITMAP
FFF0
FFF0
ENDCHAR
STARTCHAR grave
ENCODING 96
SWIDTH 602 0
DWIDTH 14 0
BBX 6 4 3 15
BITMAP
E0
30
18
0C
ENDCHAR
STARTCHAR a
ENCODING 97
SWIDTH 602 0
DWIDTH 14 0
BBX 11 13 2 0
BITMAP
3F00
7FC0
40E0
0060
0060
1FE0
7FE0
E060
C060
C0E0
E1E0
7F60
3E60
ENDCHAR
STARTCHAR b
ENCODING 98
SWIDTH 602 0
DWIDTH 14 0
BBX 11 18 2 0
BITMAP
C000
C000
C000
C000
C000
CF00
FF80
F1C0
E0E0
C060
C060
C060
C060
C060
E0E0
F1C0
FF80
CF00
ENDCHAR
STARTCHAR c
ENCODING 99
SWIDTH 602 0
DWIDTH 14 0
BBX 10 13 2 0
BITMAP
0F80
3FC0
7040
6000
C000
C000
C000
C000
C000
6000
7040
3FC0
1F80
ENDCHAR
STARTCHAR d
ENCODING 100
SWIDTH 602 0
DWIDTH 14 0
BBX 11 18 2 0
BITMAP
0060
0060
0060
0060
0060
1E60
3FE0
71E0
E0E0
C060
C060
C060
C060
C060
E0E0
71E0
3FE0
1E60
ENDCHAR
STARTCHAR e
ENCODING 101
SWIDTH 602 0
DWIDTH 14 0
BBX 11 13 2 0
BITMAP
1F00
3FC0
70C0
E060
C060
FFE0
FFE0
C000
C000
E000
7040
3FC0
1F80
ENDCHAR
STARTCHAR f
ENCODING 102
SWIDTH 602 0
DWIDTH 14 0
BBX 11 18 2 0
BITMAP
03E0
07E0
0C00
0C00
0C00
FFE0
FFE0
0C00
0C00
0C00
0C00
0C00
0C00
0C00
0C00
0C00
0C00
0C00
ENDCHAR
STARTCHAR g
ENCODING 103
SWIDTH 602 0
DWIDTH 14 0
BBX 11 18 2 -5
BITMAP
1E60
3FE0
71E0
E0E0
C060
C060
C060
C060
C060
E0E0
71E0
3FE0
1E60
0060
0060
40C0
7F80
3F00
ENDCHAR
STARTCHAR h
ENCODING 104
SWIDTH 602 0
DWIDTH 14 0
BBX 11 18 2 0
BITMAP
C000
C000
C000
C000
C000
CF80
DFC0
F0E0
E060
C060
C060
C060
C060
C060
C060
C060
C060
C060
ENDCHAR
STARTCHAR i
ENCODING 105
SWIDTH 602 0
DWIDTH 14 0
BBX 10 18 2 0
BITMAP
0C00
0C00
0C00
0000
0000
7C00
7C00
0C00
0C00
0C00
0C00
0C00
0C00
0C00
0C00
0C00
FFC0
FFC0
ENDCHAR
STARTCHAR j
ENCODING 106
SWIDTH 602 0
DWIDTH 14 0
BBX 7 23 2 -5
BITMAP
06
06
06
00
00
7E
7E
06
06
06
06
06
06
06
06
06
06
06
06
06
0E
FC
F8
ENDCHAR
STARTCHAR k
ENCODING 107
SWIDTH 602 0
DWIDTH 14 0
BBX 11 18 2 0
BITMAP
C000
C000
C000
C000
C000
C1C0
C380
C700
CE00
DC00
FC00
FC00
E600
C700
C300
C180
C1C0
C0E0
ENDCHAR
STARTCHAR l
ENCODING 108
SWIDTH 602 0
DWIDTH 14 0
BBX 11 18 1 0
BITMAP
FC00
FC00
0C00
0C00
0C00
0C00
0C00
0C00
0C00
0C00
0C00
0C00
0C00
0C00
0C00
0E00
07E0
03E0
ENDCHAR
STARTCHAR m
ENCODING 109
SWIDTH 602 0
DWIDTH 14 0
BBX 12 13 2 0
BITMAP
DCE0
FFE0
C630
C630
C630
C630
C630
C630
C630
C630
C630
C630
C630
ENDCHAR
STARTCHAR n
ENCODING 110
SWIDTH 602 0
DWIDTH 14 0
BBX 11 13 2 0
BITMAP
CF80
DFC0
F0E0
E060
C060
C060
C060
C060
C060
C060
C060
C060
C060
ENDCHAR
STARTCHAR o
ENCODING 111
SWIDTH 602 0
DWIDTH 14 0
BBX 11 13 2 0
BITMAP
1F00
3F80
71C0
E0E0
C060
C060
C060
C060
C060
E0E0
71C0
3F80
1F00
ENDCHAR
STARTCHAR p
ENCODING 112
SWIDTH 602 0
DWIDTH 14 0
BBX 11 18 2 -5
BITMAP
CF00
FF80
F1C0
E0E0
C060
C060
C060
C060
C060
E0E0
F1C0
FF80
CF00
C000
C000
C000
C000
C000
ENDCHAR
STARTCHAR q
ENCODING 113
SWIDTH 602 0
DWIDTH 14 0
BBX 11 18 2 -5
BITMAP
1E60
3FE0
71E0
E0E0
C060
C060
C060
C060
C060
E0E0
71E0
3FE0
1E60
0060
0060
0060
0060
0060
ENDCHAR
STARTCHAR r
ENCODING 114
SWIDTH 602 0
DWIDTH 14 0
BBX 9 13 4 0
BITMAP
CF00
DF80
F080
E000
C000
C000
C000
C000
C000
C000
C000
C000
C000
ENDCHAR
STARTCHAR s
ENCODING 115
SWIDTH 602 0
DWIDTH 14 0
BBX 11 13 2 0
BITMAP
3F80
7FC0
E040
C000
E000
FE00
3FC0
03E0
0060
0060
C0E0
FFC0
3F00
ENDCHAR
STARTCHAR t
ENCODING 116
SWIDTH 602 0
DWIDTH 14 0
BBX 11 17 1 0
BITMAP
0C00
0C00
0C00
0C00
FFE0
FFE0
0C00
0C00
0C00
0C00
0C00
0C00
0C00
0C00
0E00
07E0
03E0
ENDCHAR
STARTCHAR u
ENCODING 117
SWIDTH 602 0
DWIDTH 14 0
BBX 11 13 2 0
BITMAP
C060
C060
C060
C060
C060
C060
C060
C060
C060
C0E0
E1E0
7F60
3E60
ENDCHAR
STARTCHAR v
ENCODING 118
SWIDTH 602 0
DWIDTH 14 0
BBX 11 13 2 0
BITMAP
C060
E0E0
60C0
60C0
71C0
3180
3180
3B80
1B00
1B00
1F00
0E00
0E00
ENDCHAR
STARTCHAR w
ENCODING 119
SWIDTH 602 0
DWIDTH 14 0
BBX 14 13 0 0
BITMAP
C00C
C00C
6018
6018
6318
6318
77B8
37B0
34B0
34B0
3CF0
1860
1860
ENDCHAR
STARTCHAR x
ENCODING 120
SWIDTH 602 0
DWIDTH 14 0
BBX 11 13 2 0
BITMAP
E0E0
71C0
3180
3B80
1F00
0E00
0E00
0E00
1B00
3B80
3180
60C0
E0E0
ENDCHAR
STARTCHAR y
ENCODING 121
SWIDTH 602 0
DWIDTH 14 0
BBX 11 18 2 -5
BITMAP
C060
60C0
60C0
60C0
3180
3180
3980
1B00
1B00
1F00
0E00
0E00
0600
0C00
0C00
1C00
7800
7000
ENDCHAR
STARTCHAR z
ENCODING 122
SWIDTH 602 0
DWIDTH 14 0
BBX 11 13 2 0
BITMAP
FFE0
FFE0
00C0
01C0
0380
0700
0E00
1C00
3800
7000
6000
FFE0
FFE0
ENDCHAR
STARTCHAR braceleft
ENCODING 123
SWIDTH 602 0
DWIDTH 14 0
BBX 9 22 2 -4
BITMAP
0780
0F80
0C00
0C00
0C00
0C00
0C00
0C00
0C00
1C00
F800
F800
1C00
0C00
0C00
0C00
0C00
0C00
0C00
0C00
0F80
0780
ENDCHAR
STARTCHAR bar
ENCODING 124
SWIDTH 602 0
DWIDTH 14 0
BBX 2 24 6 -6
BITMAP
C0
C0
C0
C0
C0
C0
C0
C0
C0
C0
C0
C0
C0
C0
C0
C0
C0
C0
C0
C0
C0
C0
C0
C0
ENDCHAR
STARTCHAR braceright
ENCODING 125
SWIDTH 602 0
DWIDTH 14 0
BBX 9 22 3 -4
BITMAP
F000
F800
1800
1800
1800
1800
1800
1800
1800
1C00
0F80
0F80
1C00
1800
1800
1800
1800
1800
1800
1800
F800
F000
ENDCHAR
STARTCHAR asciitilde
ENCODING 126
SWIDTH 602 0
DWIDTH 14 0
BBX 12 3 1 6
BITMAP
7C10
FFF0
83E0
ENDCHAR
STARTCHAR nonbreakingspace
ENCODING 160
SWIDTH 602 0
DWIDTH 14 0
BBX 1 1 0 0
BITMAP
00
ENDCHAR
STARTCHAR exclamdown
ENCODING 161
SWIDTH 602 0
DWIDTH 14 0
BBX 2 18 6 0
BITMAP
C0
C0
C0
00
00
00
C0
C0
C0
C0
C0
C0
C0
C0
C0
C0
C0
C0
ENDCHAR
STARTCHAR cent
ENCODING 162
SWIDTH 602 0
DWIDTH 14 0
BBX 10 20 2 -4
BITMAP
0200
0200
0200
0F80
3FC0
7240
6200
C200
C200
C200
C200
C200
6200
7240
3FC0
0F80
0200
0200
0200
0200
ENDCHAR
STARTCHAR sterling
ENCODING 163
SWIDTH 602 0
DWIDTH 14 0
BBX 11 18 1 0
BITMAP
03C0
0FE0
0C20
1800
1800
1800
1800
1800
1800
7F80
7F80
1800
1800
1800
1800
1800
FFE0
FFE0
ENDCHAR
STARTCHAR currency
ENCODING 164
SWIDTH 602 0
DWIDTH 14 0
BBX 10 10 3 3
BITMAP
8040
7F80
6180
4080
4080
4080
4080
6180
7F80
8040
ENDCHAR
STARTCHAR yen
ENCODING 165
SWIDTH 602 0
DWIDTH 14 0
BBX 14 18 0 0
BITMAP
E01C
6018
3030
3870
1860
0CC0
7CF8
7FF8
0780
0300
7FF8
7FF8
0300
0300
0300
0300
0300
0300
ENDCHAR
STARTCHAR brokenbar
ENCODING 166
SWIDTH 602 0
DWIDTH 14 0
BBX 2 21 6 -4
BITMAP
C0
C0
C0
C0
C0
C0
C0
C0
C0
00
00
00
C0
C0
C0
C0
C0
C0
C0
C0
C0
ENDCHAR
STARTCHAR section
ENCODING 167
SWIDTH 602 0
DWIDTH 14 0
BBX 10 20 2 -2
BITMAP
1F00
3F80
7080
6000
6000
3800
3C00
6F00
C380
C1C0
E0C0
70C0
3D80
0F00
0380
0180
0180
4380
7F00
3E00
ENDCHAR
STARTCHAR dieresis
ENCODING 168
SWIDTH 602 0
DWIDTH 14 0
BBX 6 2 4 16
BITMAP
CC
CC
ENDCHAR
STARTCHAR copyright
ENCODING 169
SWIDTH 602 0
DWIDTH 14 0
BBX 14 14 0 2
BITMAP
0FC0
1860
2010
4788
CC4C
9804
9804
9804
9804
CC4C
4788
2010
1860
0FC0
ENDCHAR
STARTCHAR ordfeminine
ENCODING 170
SWIDTH 602 0
DWIDTH 14 0
BBX 9 12 3 6
BITMAP
3E00
4300
0180
0180
3F80
E180
C180
C380
E380
7D80
0000
FF80
ENDCHAR
STARTCHAR guillemotleft
ENCODING 171
SWIDTH 602 0
DWIDTH 14 0
BBX 12 11 1 1
BITMAP
0410
0C30
1C70
38E0
6180
C300
6180
38E0
1C70
0C30
0410
ENDCHAR
STARTCHAR logicalnot
ENCODING 172
SWIDTH 602 0
DWIDTH 14 0
BBX 12 6 1 4
BITMAP
FFF0
FFF0
0030
0030
0030
0030
ENDCHAR
STARTCHAR sfthyphen
ENCODING 173
SWIDTH 602 0
DWIDTH 14 0
BBX 6 2 4 6
BITMAP
FC
FC
ENDCHAR
STARTCHAR registered
ENCODING 174
SWIDTH 602 0
DWIDTH 14 0
BBX 14 14 0 2
BITMAP
0FC0
1860
2010
4F88
CCCC
8CC4
8CC4
8F84
8F84
CDCC
4CE8
2010
1860
0FC0
ENDCHAR
STARTCHAR macron
ENCODING 175
SWIDTH 602 0
DWIDTH 14 0
BBX 7 2 4 16
BITMAP
FE
FE
ENDCHAR
STARTCHAR degree
ENCODING 176
SWIDTH 602 0
DWIDTH 14 0
BBX 7 7 4 11
BITMAP
38
44
82
82
82
44
38
ENDCHAR
STARTCHAR plusminus
ENCODING 177
SWIDTH 602 0
DWIDTH 14 0
BBX 12 14 1 0
BITMAP
0600
0600
0600
0600
FFF0
FFF0
0600
0600
0600
0600
0000
0000
FFF0
FFF0
ENDCHAR
STARTCHAR twosuperior
ENCODING 178
SWIDTH 602 0
DWIDTH 14 0
BBX 7 10 4 8
BITMAP
78
8E
06
06
0E
1C
38
70
E0
FE
ENDCHAR
STARTCHAR threesuperior
ENCODING 179
SWIDTH 602 0
DWIDTH 14 0
BBX 7 10 4 8
BITMAP
7C
8E
06
06
38
0E
06
06
8E
78
ENDCHAR
STARTCHAR acute
ENCODING 180
SWIDTH 602 0
DWIDTH 14 0
BBX 5 4 6 15
BITMAP
18
30
60
C0
ENDCHAR
STARTCHAR mu
ENCODING 181
SWIDTH 602 0
DWIDTH 14 0
BBX 13 18 2 -5
BITMAP
C060
C060
C060
C060
C060
C060
C060
C060
C060
C060
E0E0
FFF8
DF38
C000
C000
C000
C000
C000
ENDCHAR
STARTCHAR paragraph
ENCODING 182
SWIDTH 602 0
DWIDTH 14 0
BBX 11 20 1 -2
BITMAP
1FE0
7E60
7E60
FE60
FE60
FE60
FE60
7E60
7E60
1E60
0660
0660
0660
0660
0660
0660
0660
0660
0660
0660
ENDCHAR
STARTCHAR periodcentered
ENCODING 183
SWIDTH 602 0
DWIDTH 14 0
BBX 3 4 6 6
BITMAP
E0
E0
E0
E0
ENDCHAR
STARTCHAR cedilla
ENCODING 184
SWIDTH 602 0
DWIDTH 14 0
BBX 5 5 4 -5
BITMAP
10
18
18
F8
F0
ENDCHAR
STARTCHAR onesuperior
ENCODING 185
SWIDTH 602 0
DWIDTH 14 0
BBX 6 10 5 8
BITMAP
F0
30
30
30
30
30
30
30
30
FC
ENDCHAR
STARTCHAR ordmasculine
ENCODING 186
SWIDTH 602 0
DWIDTH 14 0
BBX 9 12 3 6
BITMAP
3E00
6300
C180
C180
C180
C180
C180
C180
6300
3E00
0000
FF80
ENDCHAR
STARTCHAR guillemotright
ENCODING 187
SWIDTH 602 0
DWIDTH 14 0
BBX 12 11 2 1
BITMAP
8200
C300
E380
71C0
1860
0C30
1860
71C0
E380
C300
8200
ENDCHAR
STARTCHAR onequarter
ENCODING 188
SWIDTH 602 0
DWIDTH 14 0
BBX 13 23 0 -3
BITMAP
3C00
0C00
0C00
0C00
0C00
0C00
0C00
0C00
0C00
3F00
0018
03E0
3E00
C060
00E0
00E0
0160
0360
0260
0460
07F0
0060
0060
ENDCHAR
STARTCHAR onehalf
ENCODING 189
SWIDTH 602 0
DWIDTH 14 0
BBX 13 23 0 -3
BITMAP
3C00
0C00
0C00
0C00
0C00
0C00
0C00
0C00
0C00
3F00
0018
03E0
3E00
C1E0
0238
0018
0018
0038
0070
00E0
01C0
0380
03F8
ENDCHAR
STARTCHAR threequarters
ENCODING 190
SWIDTH 602 0
DWIDTH 14 0
BBX 13 23 0 -3
BITMAP
3E00
4700
0300
0300
1C00
0700
0300
0300
4700
3C00
0018
03E0
3E00
C060
00E0
00E0
0160
0360
0260
0460
07F0
0060
0060
ENDCHAR
STARTCHAR questiondown
ENCODING 191
SWIDTH 602 0
DWIDTH 14 0
BBX 9 18 2 0
BITMAP
0C00
0C00
0C00
0000
0000
0C00
0C00
0C00
1C00
3800
7000
6000
C000
C000
C080
E180
7F00
3E00
ENDCHAR
STARTCHAR Agrave
ENCODING 192
SWIDTH 602 0
DWIDTH 14 0
BBX 12 22 1 0
BITMAP
1800
0C00
0600
0000
0600
0F00
0F00
0F00
0F00
1980
1980
1980
3980
30C0
30C0
30C0
7FE0
7FE0
6060
6060
C030
C030
ENDCHAR
STARTCHAR Aacute
ENCODING 193
SWIDTH 602 0
DWIDTH 14 0
BBX 12 22 1 0
BITMAP
0180
0300
0600
0000
0600
0F00
0F00
0F00
0F00
1980
1980
1980
3980
30C0
30C0
30C0
7FE0
7FE0
6060
6060
C030
C030
ENDCHAR
STARTCHAR Acircumflex
ENCODING 194
SWIDTH 602 0
DWIDTH 14 0
BBX 12 22 1 0
BITMAP
0700
0D80
18C0
0000
0600
0F00
0F00
0F00
0F00
1980
1980
1980
3980
30C0
30C0
30C0
7FE0
7FE0
6060
6060
C030
C030
ENDCHAR
STARTCHAR Atilde
ENCODING 195
SWIDTH 602 0
DWIDTH 14 0
BBX 12 21 1 0
BITMAP
1C40
2380
0000
0600
0F00
0F00
0F00
0F00
1980
1980
1980
3980
30C0
30C0
30C0
7FE0
7FE0
6060
6060
C030
C030
ENDCHAR
STARTCHAR Adieresis
ENCODING 196
SWIDTH 602 0
DWIDTH 14 0
BBX 12 21 1 0
BITMAP
1980
1980
0000
0600
0F00
0F00
0F00
0F00
1980
1980
1980
3980
30C0
30C0
30C0
7FE0
7FE0
6060
6060
C030
C030
ENDCHAR
STARTCHAR Aring
ENCODING 197
SWIDTH 602 0
DWIDTH 14 0
BBX 12 22 1 0
BITMAP
0F00
1980
1080
1980
0F00
0F00
0F00
1980
1980
1980
1980
39C0
30C0
30C0
30C0
30C0
7FE0
7FE0
6060
6060
C030
C030
ENDCHAR
STARTCHAR AE
ENCODING 198
SWIDTH 602 0
DWIDTH 14 0
BBX 13 18 0 0
BITMAP
0FF8
0FF8
0D80
0D80
1980
1980
1980
1980
31F0
31F0
3180
3180
7F80
7F80
6180
6180
C1F8
C1F8
ENDCHAR
STARTCHAR Ccedilla
ENCODING 199
SWIDTH 602 0
DWIDTH 14 0
BBX 11 23 1 -5
BITMAP
0FC0
1FE0
3820
6000
6000
C000
C000
C000
C000
C000
C000
C000
C000
6000
6000
3820
1FE0
0FC0
0100
0180
0180
0F80
0F00
ENDCHAR
STARTCHAR Egrave
ENCODING 200
SWIDTH 602 0
DWIDTH 14 0
BBX 11 22 1 0
BITMAP
1800
0C00
0600
0000
FFE0
FFE0
C000
C000
C000
C000
C000
C000
FFC0
FFC0
C000
C000
C000
C000
C000
C000
FFE0
FFE0
ENDCHAR
STARTCHAR Eacute
ENCODING 201
SWIDTH 602 0
DWIDTH 14 0
BBX 11 22 1 0
BITMAP
0180
0300
0600
0000
FFE0
FFE0
C000
C000
C000
C000
C000
C000
FFC0
FFC0
C000
C000
C000
C000
C000
C000
FFE0
FFE0
ENDCHAR
STARTCHAR Ecircumflex
ENCODING 202
SWIDTH 602 0
DWIDTH 14 0
BBX 11 22 1 0
BITMAP
0700
0D80
18C0
0000
FFE0
FFE0
C000
C000
C000
C000
C000
C000
FFC0
FFC0
C000
C000
C000
C000
C000
C000
FFE0
FFE0
ENDCHAR
STARTCHAR Edieresis
ENCODING 203
SWIDTH 602 0
DWIDTH 14 0
BBX 11 21 1 0
BITMAP
1980
1980
0000
FFE0
FFE0
C000
C000
C000
C000
C000
C000
FFC0
FFC0
C000
C000
C000
C000
C000
C000
FFE0
FFE0
ENDCHAR
STARTCHAR Igrave
ENCODING 204
SWIDTH 602 0
DWIDTH 14 0
BBX 10 22 2 0
BITMAP
3000
1800
0C00
0000
FFC0
FFC0
0C00
0C00
0C00
0C00
0C00
0C00
0C00
0C00
0C00
0C00
0C00
0C00
0C00
0C00
FFC0
FFC0
ENDCHAR
STARTCHAR Iacute
ENCODING 205
SWIDTH 602 0
DWIDTH 14 0
BBX 10 22 2 0
BITMAP
0300
0600
0C00
0000
FFC0
FFC0
0C00
0C00
0C00
0C00
0C00
0C00
0C00
0C00
0C00
0C00
0C00
0C00
0C00
0C00
FFC0
FFC0
ENDCHAR
STARTCHAR Icircumflex
ENCODING 206
SWIDTH 602 0
DWIDTH 14 0
BBX 10 22 2 0
BITMAP
0E00
1B00
3180
0000
FFC0
FFC0
0C00
0C00
0C00
0C00
0C00
0C00
0C00
0C00
0C00
0C00
0C00
0C00
0C00
0C00
FFC0
FFC0
ENDCHAR
STARTCHAR Idieresis
ENCODING 207
SWIDTH 602 0
DWIDTH 14 0
BBX 10 21 2 0
BITMAP
3300
3300
0000
FFC0
FFC0
0C00
0C00
0C00
0C00
0C00
0C00
0C00
0C00
0C00
0C00
0C00
0C00
0C00
0C00
FFC0
FFC0
ENDCHAR
STARTCHAR Eth
ENCODING 208
SWIDTH 602 0
DWIDTH 14 0
BBX 12 18 0 0
BITMAP
7E00
7F80
61C0
6060
6060
6030
6030
6030
FC30
FC30
6030
6030
6030
6060
6060
61C0
7F80
7E00
ENDCHAR
STARTCHAR Ntilde
ENCODING 209
SWIDTH 602 0
DWIDTH 14 0
BBX 11 21 1 0
BITMAP
1C40
2380
0000
E060
E060
F060
F060
D860
D860
D860
CC60
CC60
C660
C660
C360
C360
C360
C1E0
C1E0
C0E0
C0E0
ENDCHAR
STARTCHAR Ograve
ENCODING 210
SWIDTH 602 0
DWIDTH 14 0
BBX 12 22 1 0
BITMAP
1800
0C00
0600
0000
1F80
3FC0
70E0
6060
E060
C030
C030
C030
C030
C030
C030
C030
C030
E060
6060
70E0
3FC0
1F00
ENDCHAR
STARTCHAR Oacute
ENCODING 211
SWIDTH 602 0
DWIDTH 14 0
BBX 12 22 1 0
BITMAP
0180
0300
0600
0000
1F80
3FC0
70E0
6060
E060
C030
C030
C030
C030
C030
C030
C030
C030
E060
6060
70E0
3FC0
1F00
ENDCHAR
STARTCHAR Ocircumflex
ENCODING 212
SWIDTH 602 0
DWIDTH 14 0
BBX 12 22 1 0
BITMAP
0700
0D80
18C0
0000
1F80
3FC0
70E0
6060
E060
C030
C030
C030
C030
C030
C030
C030
C030
E060
6060
70E0
3FC0
1F00
ENDCHAR
STARTCHAR Otilde
ENCODING 213
SWIDTH 602 0
DWIDTH 14 0
BBX 12 21 1 0
BITMAP
1C40
2380
0000
1F80
3FC0
70E0
6060
E060
C030
C030
C030
C030
C030
C030
C030
C030
E060
6060
70E0
3FC0
1F00
ENDCHAR
STARTCHAR Odieresis
ENCODING 214
SWIDTH 602 0
DWIDTH 14 0
BBX 12 21 1 0
BITMAP
1980
1980
0000
1F80
3FC0
70E0
6060
E060
C030
C030
C030
C030
C030
C030
C030
C030
E060
6060
70E0
3FC0
1F00
ENDCHAR
STARTCHAR multiply
ENCODING 215
SWIDTH 602 0
DWIDTH 14 0
BBX 11 11 2 2
BITMAP
4040
E0E0
71C0
3B80
1F00
0E00
1F00
3B80
71C0
E0E0
4040
ENDCHAR
STARTCHAR Oslash
ENCODING 216
SWIDTH 602 0
DWIDTH 14 0
BBX 14 18 0 0
BITMAP
07CC
1FE8
3878
3030
7038
6078
60D8
6198
6318
6618
6618
6C18
7818
7030
3030
7870
5FE0
CF80
ENDCHAR
STARTCHAR Ugrave
ENCODING 217
SWIDTH 602 0
DWIDTH 14 0
BBX 11 22 1 0
BITMAP
1800
0C00
0600
0000
C060
C060
C060
C060
C060
C060
C060
C060
C060
C060
C060
C060
C060
C060
C060
60C0
7FC0
1F00
ENDCHAR
STARTCHAR Uacute
ENCODING 218
SWIDTH 602 0
DWIDTH 14 0
BBX 11 22 1 0
BITMAP
0180
0300
0600
0000
C060
C060
C060
C060
C060
C060
C060
C060
C060
C060
C060
C060
C060
C060
C060
60C0
7FC0
1F00
ENDCHAR
STARTCHAR Ucircumflex
ENCODING 219
SWIDTH 602 0
DWIDTH 14 0
BBX 11 22 1 0
BITMAP
0700
0D80
18C0
0000
C060
C060
C060
C060
C060
C060
C060
C060
C060
C060
C060
C060
C060
C060
C060
60C0
7FC0
1F00
ENDCHAR
STARTCHAR Udieresis
ENCODING 220
SWIDTH 602 0
DWIDTH 14 0
BBX 11 21 1 0
BITMAP
1980
1980
0000
C060
C060
C060
C060
C060
C060
C060
C060
C060
C060
C060
C060
C060
C060
C060
60C0
7FC0
1F00
ENDCHAR
STARTCHAR Yacute
ENCODING 221
SWIDTH 602 0
DWIDTH 14 0
BBX 14 22 0 0
BITMAP
00C0
0180
0300
0000
E01C
6018
3038
3030
1860
1CE0
0CC0
0780
0780
0300
0300
0300
0300
0300
0300
0300
0300
0300
ENDCHAR
STARTCHAR Thorn
ENCODING 222
SWIDTH 602 0
DWIDTH 14 0
BBX 11 18 1 0
BITMAP
C000
C000
C000
FF00
FFC0
C0E0
C060
C060
C060
C060
C0E0
FFC0
FF00
C000
C000
C000
C000
C000
ENDCHAR
STARTCHAR germandbls
ENCODING 223
SWIDTH 602 0
DWIDTH 14 0
BBX 11 18 2 0
BITMAP
3F00
7F80
E1C0
C0C0
C1C0
C700
CC00
CC00
CC00
C700
C380
C1C0
C060
C060
C060
D0E0
DFC0
CF80
ENDCHAR
STARTCHAR agrave
ENCODING 224
SWIDTH 602 0
DWIDTH 14 0
BBX 11 19 2 0
BITMAP
7000
1800
0C00
0600
0000
0000
3F00
7FC0
40E0
0060
0060
1FE0
7FE0
E060
C060
C0E0
E1E0
7F60
3E60
ENDCHAR
STARTCHAR aacute
ENCODING 225
SWIDTH 602 0
DWIDTH 14 0
BBX 11 19 2 0
BITMAP
0180
0300
0600
0C00
0000
0000
3F00
7FC0
40E0
0060
0060
1FE0
7FE0
E060
C060
C0E0
E1E0
7F60
3E60
ENDCHAR
STARTCHAR acircumflex
ENCODING 226
SWIDTH 602 0
DWIDTH 14 0
BBX 11 19 2 0
BITMAP
1C00
1400
3600
6300
0000
0000
3F00
7FC0
40E0
0060
0060
1FE0
7FE0
E060
C060
C0E0
E1E0
7F60
3E60
ENDCHAR
STARTCHAR atilde
ENCODING 227
SWIDTH 602 0
DWIDTH 14 0
BBX 11 19 2 0
BITMAP
3880
4C80
4700
0000
0000
0000
3F00
7FC0
40E0
0060
0060
1FE0
7FE0
E060
C060
C0E0
E1E0
7F60
3E60
ENDCHAR
STARTCHAR adieresis
ENCODING 228
SWIDTH 602 0
DWIDTH 14 0
BBX 11 18 2 0
BITMAP
3300
3300
0000
0000
0000
3F00
7FC0
40E0
0060
0060
1FE0
7FE0
E060
C060
C0E0
E1E0
7F60
3E60
ENDCHAR
STARTCHAR aring
ENCODING 229
SWIDTH 602 0
DWIDTH 14 0
BBX 11 21 2 0
BITMAP
1E00
3300
2100
2100
3300
1E00
0000
0000
3F00
7FC0
40E0
0060
0060
1FE0
7FE0
E060
C060
C0E0
E1E0
7F60
3E60
ENDCHAR
STARTCHAR ae
ENCODING 230
SWIDTH 602 0
DWIDTH 14 0
BBX 14 13 0 0
BITMAP
3CF0
7FF8
479C
030C
030C
3FFC
7FFC
E300
C300
C300
E784
7FFC
3CF8
ENDCHAR
STARTCHAR ccedilla
ENCODING 231
SWIDTH 602 0
DWIDTH 14 0
BBX 10 18 2 -5
BITMAP
0F80
3FC0
7040
6000
C000
C000
C000
C000
C000
6000
7040
3FC0
1F80
0200
0300
0300
1F00
1E00
ENDCHAR
STARTCHAR egrave
ENCODING 232
SWIDTH 602 0
DWIDTH 14 0
BBX 11 19 2 0
BITMAP
7000
1800
0C00
0600
0000
0000
1F00
3FC0
70C0
E060
C060
FFE0
FFE0
C000
C000
E000
7040
3FC0
1F80
ENDCHAR
STARTCHAR eacute
ENCODING 233
SWIDTH 602 0
DWIDTH 14 0
BBX 11 19 2 0
BITMAP
0180
0300
0600
0C00
0000
0000
1F00
3FC0
70C0
E060
C060
FFE0
FFE0
C000
C000
E000
7040
3FC0
1F80
ENDCHAR
STARTCHAR ecircumflex
ENCODING 234
SWIDTH 602 0
DWIDTH 14 0
BBX 11 19 2 0
BITMAP
1C00
1400
3600
6300
0000
0000
1F00
3FC0
70C0
E060
C060
FFE0
FFE0
C000
C000
E000
7040
3FC0
1F80
ENDCHAR
STARTCHAR edieresis
ENCODING 235
SWIDTH 602 0
DWIDTH 14 0
BBX 11 18 2 0
BITMAP
3300
3300
0000
0000
0000
1F00
3FC0
70C0
E060
C060
FFE0
FFE0
C000
C000
E000
7040
3FC0
1F80
ENDCHAR
STARTCHAR igrave
ENCODING 236
SWIDTH 602 0
DWIDTH 14 0
BBX 10 19 2 0
BITMAP
7000
1800
0C00
0600
0000
0000
7C00
7C00
0C00
0C00
0C00
0C00
0C00
0C00
0C00
0C00
0C00
FFC0
FFC0
ENDCHAR
STARTCHAR iacute
ENCODING 237
SWIDTH 602 0
DWIDTH 14 0
BBX 10 19 2 0
BITMAP
0180
0300
0600
0C00
0000
0000
7C00
7C00
0C00
0C00
0C00
0C00
0C00
0C00
0C00
0C00
0C00
FFC0
FFC0
ENDCHAR
STARTCHAR icircumflex
ENCODING 238
SWIDTH 602 0
DWIDTH 14 0
BBX 10 19 2 0
BITMAP
1C00
1400
3600
6300
0000
0000
7C00
7C00
0C00
0C00
0C00
0C00
0C00
0C00
0C00
0C00
0C00
FFC0
FFC0
ENDCHAR
STARTCHAR idieresis
ENCODING 239
SWIDTH 602 0
DWIDTH 14 0
BBX 10 18 2 0
BITMAP
3300
3300
0000
0000
0000
7C00
7C00
0C00
0C00
0C00
0C00
0C00
0C00
0C00
0C00
0C00
FFC0
FFC0
ENDCHAR
STARTCHAR eth
ENCODING 240
SWIDTH 602 0
DWIDTH 14 0
BBX 11 18 2 0
BITMAP
3800
1FC0
1E00
6700
0300
1F80
3FC0
70C0
E0E0
C060
C060
C060
C060
C060
E0E0
71C0
3F80
1F00
ENDCHAR
STARTCHAR ntilde
ENCODING 241
SWIDTH 602 0
DWIDTH 14 0
BBX 11 19 2 0
BITMAP
3880
4C80
4700
0000
0000
0000
CF80
DFC0
F0E0
E060
C060
C060
C060
C060
C060
C060
C060
C060
C060
ENDCHAR
STARTCHAR ograve
ENCODING 242
SWIDTH 602 0
DWIDTH 14 0
BBX 11 19 2 0
BITMAP
7000
1800
0C00
0600
0000
0000
1F00
3F80
71C0
E0E0
C060
C060
C060
C060
C060
E0E0
71C0
3F80
1F00
ENDCHAR
STARTCHAR oacute
ENCODING 243
SWIDTH 602 0
DWIDTH 14 0
BBX 11 19 2 0
BITMAP
0180
0300
0600
0C00
0000
0000
1F00
3F80
71C0
E0E0
C060
C060
C060
C060
C060
E0E0
71C0
3F80
1F00
ENDCHAR
STARTCHAR ocircumflex
ENCODING 244
SWIDTH 602 0
DWIDTH 14 0
BBX 11 19 2 0
BITMAP
1C00
1400
3600
6300
0000
0000
1F00
3F80
71C0
E0E0
C060
C060
C060
C060
C060
E0E0
71C0
3F80
1F00
ENDCHAR
STARTCHAR otilde
ENCODING 245
SWIDTH 602 0
DWIDTH 14 0
BBX 11 19 2 0
BITMAP
3880
4C80
4700
0000
0000
0000
1F00
3F80
71C0
E0E0
C060
C060
C060
C060
C060
E0E0
71C0
3F80
1F00
ENDCHAR
STARTCHAR odieresis
ENCODING 246
SWIDTH 602 0
DWIDTH 14 0
BBX 11 18 2 0
BITMAP
3300
3300
0000
0000
0000
1F00
3F80
71C0
E0E0
C060
C060
C060
C060
C060
E0E0
71C0
3F80
1F00
ENDCHAR
STARTCHAR divide
ENCODING 247
SWIDTH 602 0
DWIDTH 14 0
BBX 13 12 1 2
BITMAP
0700
0700
0700
0000
0000
FFF8
FFF8
0000
0000
0700
0700
0700
ENDCHAR
STARTCHAR oslash
ENCODING 248
SWIDTH 602 0
DWIDTH 14 0
BBX 13 13 1 0
BITMAP
0F98
1FF0
38E0
70F0
61B0
6130
6230
6630
6C30
7870
38E0
7FC0
CF80
ENDCHAR
STARTCHAR ugrave
ENCODING 249
SWIDTH 602 0
DWIDTH 14 0
BBX 11 19 2 0
BITMAP
7000
1800
0C00
0600
0000
0000
C060
C060
C060
C060
C060
C060
C060
C060
C060
C0E0
E1E0
7F60
3E60
ENDCHAR
STARTCHAR uacute
ENCODING 250
SWIDTH 602 0
DWIDTH 14 0
BBX 11 19 2 0
BITMAP
0180
0300
0600
0C00
0000
0000
C060
C060
C060
C060
C060
C060
C060
C060
C060
C0E0
E1E0
7F60
3E60
ENDCHAR
STARTCHAR ucircumflex
ENCODING 251
SWIDTH 602 0
DWIDTH 14 0
BBX 11 19 2 0
BITMAP
1C00
1400
3600
6300
0000
0000
C060
C060
C060
C060
C060
C060
C060
C060
C060
C0E0
E1E0
7F60
3E60
ENDCHAR
STARTCHAR udieresis
ENCODING 252
SWIDTH 602 0
DWIDTH 14 0
BBX 11 18 2 0
BITMAP
3300
3300
0000
0000
0000
C060
C060
C060
C060
C060
C060
C060
C060
C060
C0E0
E1E0
7F60
3E60
ENDCHAR
STARTCHAR yacute
ENCODING 253
SWIDTH 602 0
DWIDTH 14 0
BBX 11 24 2 -5
BITMAP
0180
0300
0600
0C00
0000
0000
C060
60C0
60C0
60C0
3180
3180
3980
1B00
1B00
1F00
0E00
0E00
0600
0C00
0C00
1C00
7800
7000
ENDCHAR
STARTCHAR thorn
ENCODING 254
SWIDTH 602 0
DWIDTH 14 0
BBX 11 23 2 -5
BITMAP
C000
C000
C000
C000
C000
CF00
FF80
F1C0
E0E0
C060
C060
C060
C060
C060
E0E0
F1C0
FF80
CF00
C000
C000
C000
C000
C000
ENDCHAR
STARTCHAR ydieresis
ENCODING 255
SWIDTH 602 0
DWIDTH 14 0
BBX 11 23 2 -5
BITMAP
3300
3300
0000
0000
0000
C060
60C0
60C0
60C0
3180
3180
3980
1B00
1B00
1F00
0E00
0E00
0600
0C00
0C00
1C00
7800
7000
ENDCHAR
STARTCHAR .notdef
ENCODING -1
SWIDTH 602 0
DWIDTH 14 0
BBX 12 21 1 -4
BITMAP
FFF0
8010
8010
8010
8010
8010
8010
8010
8010
8010
8010
8010
8010
8010
8010
8010
8010
8010
8010
8010
FFF0
ENDCHAR
STARTCHAR .null
ENCODING -1
SWIDTH 0 0
DWIDTH 0 0
BBX 1 1 0 0
BITMAP
00
ENDCHAR
STARTCHAR nonmarkingreturn
ENCODING -1
SWIDTH 602 0
DWIDTH 14 0
BBX 1 1 0 0
BITMAP
00
ENDCHAR
STARTCHAR dagger
ENCODING -1
SWIDTH 602 0
DWIDTH 14 0
BBX 10 20 2 -2
BITMAP
0C00
0C00
0C00
0C00
0C00
FFC0
FFC0
0C00
0C00
0C00
0C00
0C00
0C00
0C00
0C00
0C00
0C00
0C00
0C00
0C00
ENDCHAR
STARTCHAR bullet
ENCODING -1
SWIDTH 602 0
DWIDTH 14 0
BBX 7 7 4 5
BITMAP
38
7C
FE
FE
FE
7C
38
ENDCHAR
STARTCHAR trademark
ENCODING -1
SWIDTH 602 0
DWIDTH 14 0
BBX 13 7 0 11
BITMAP
FB18
23B8
22A8
22E8
2248
2208
2208
ENDCHAR
STARTCHAR notequal
ENCODING -1
SWIDTH 602 0
DWIDTH 14 0
BBX 12 15 1 0
BITMAP
0020
0060
00E0
00C0
FFF0
FFF0
0700
0600
0C00
FFF0
FFF0
3000
7000
6000
4000
ENDCHAR
STARTCHAR infinity
ENCODING -1
SWIDTH 602 0
DWIDTH 14 0
BBX 13 9 0 3
BITMAP
38E0
7DF0
E538
C718
C218
C718
E538
7DF0
38E0
ENDCHAR
STARTCHAR lessequal
ENCODING -1
SWIDTH 602 0
DWIDTH 14 0
BBX 12 13 1 0
BITMAP
0030
01F0
0FE0
7F00
F800
F800
7F00
0FE0
01F0
0030
0000
FFF0
FFF0
ENDCHAR
STARTCHAR greaterequal
ENCODING -1
SWIDTH 602 0
DWIDTH 14 0
BBX 12 13 1 0
BITMAP
C000
F800
7F00
0FE0
01F0
01F0
0FE0
7F00
F800
C000
0000
FFF0
FFF0
ENDCHAR
STARTCHAR partialdiff
ENCODING -1
SWIDTH 602 0
DWIDTH 14 0
BBX 10 16 2 0
BITMAP
1E00
3900
1080
00C0
00C0
00C0
00C0
3CC0
72C0
E1C0
C1C0
C180
C180
C300
6600
3C00
ENDCHAR
STARTCHAR summation
ENCODING -1
SWIDTH 602 0
DWIDTH 14 0
BBX 11 23 2 -5
BITMAP
FFE0
FFE0
6000
6000
3000
1800
1800
0C00
0400
0600
0300
0300
0300
0600
0C00
0C00
1800
1000
3000
6000
6000
FFE0
FFE0
ENDCHAR
STARTCHAR product
ENCODING -1
SWIDTH 602 0
DWIDTH 14 0
BBX 11 23 2 -5
BITMAP
FFE0
FFE0
C060
C060
C060
C060
C060
C060
C060
C060
C060
C060
C060
C060
C060
C060
C060
C060
C060
C060
C060
C060
C060
ENDCHAR
STARTCHAR pi
ENCODING -1
SWIDTH 602 0
DWIDTH 14 0
BBX 13 13 1 0
BITMAP
FFF8
FFF8
3060
3060
3060
3060
3060
3060
3060
3060
3060
3078
3038
ENDCHAR
STARTCHAR integral
ENCODING -1
SWIDTH 602 0
DWIDTH 14 0
BBX 12 22 1 -4
BITMAP
00E0
0170
0370
0200
0200
0600
0600
0600
0600
0600
0600
0600
0600
0600
0600
0600
0600
0400
0400
EC00
E800
7000
ENDCHAR
STARTCHAR Omega
ENCODING -1
SWIDTH 602 0
DWIDTH 14 0
BBX 12 17 1 0
BITMAP
0F00
3FC0
70E0
6060
E070
C030
C030
C030
C030
C030
C030
E070
6060
6060
30C0
F9F0
F9F0
ENDCHAR
STARTCHAR radical
ENCODING -1
SWIDTH 602 0
DWIDTH 14 0
BBX 13 21 1 -1
BITMAP
0018
0018
0010
0030
0030
0020
0060
0060
0040
20C0
F0C0
3080
3180
1980
1980
1B00
0B00
0F00
0E00
0600
0600
ENDCHAR
STARTCHAR florin
ENCODING -1
SWIDTH 602 0
DWIDTH 14 0
BBX 14 23 0 -5
BITMAP
0038
007C
00C4
00C0
0180
0180
0180
0180
0FF0
0FF0
0300
0300
0300
0300
0300
0700
0600
0600
0600
0E00
8C00
FC00
7800
ENDCHAR
STARTCHAR approxequal
ENCODING -1
SWIDTH 602 0
DWIDTH 14 0
BBX 12 7 1 4
BITMAP
7C10
FFF0
83E0
0000
7C10
FFF0
83E0
ENDCHAR
STARTCHAR Delta
ENCODING -1
SWIDTH 602 0
DWIDTH 14 0
BBX 15 17 0 0
BITMAP
0380
0380
07C0
07C0
07C0
0EE0
0EE0
1EE0
1C70
1C70
3C78
3838
3838
701C
701C
7FFC
FFFE
ENDCHAR
STARTCHAR ellipsis
ENCODING -1
SWIDTH 602 0
DWIDTH 14 0
BBX 13 4 1 0
BITMAP
E738
E738
E738
E738
ENDCHAR
STARTCHAR OE
ENCODING -1
SWIDTH 602 0
DWIDTH 14 0
BBX 13 18 1 0
BITMAP
1FF8
3FF8
7300
6300
C300
C300
C300
C300
C3F8
C3F8
C300
C300
C300
C300
6300
7300
3FF8
1FF8
ENDCHAR
STARTCHAR oe
ENCODING -1
SWIDTH 602 0
DWIDTH 14 0
BBX 14 13 0 0
BITMAP
3CF0
7FF8
E79C
C30C
C30C
C3FC
C3FC
C300
C300
C300
E784
7FFC
3CF8
ENDCHAR
STARTCHAR endash
ENCODING -1
SWIDTH 602 0
DWIDTH 14 0
BBX 14 2 0 5
BITMAP
FFFC
FFFC
ENDCHAR
STARTCHAR emdash
ENCODING -1
SWIDTH 602 0
DWIDTH 14 0
BBX 14 2 0 5
BITMAP
FFFC
FFFC
ENDCHAR
STARTCHAR quotedblleft
ENCODING -1
SWIDTH 602 0
DWIDTH 14 0
BBX 9 7 3 11
BITMAP
3180
7380
6300
E700
E700
E700
E700
ENDCHAR
STARTCHAR quotedblright
ENCODING -1
SWIDTH 602 0
DWIDTH 14 0
BBX 9 7 3 11
BITMAP
7380
7380
7380
7380
6300
E700
C600
ENDCHAR
STARTCHAR quoteleft
ENCODING -1
SWIDTH 602 0
DWIDTH 14 0
BBX 4 7 5 11
BITMAP
30
70
60
E0
E0
E0
E0
ENDCHAR
STARTCHAR quoteright
ENCODING -1
SWIDTH 602 0
DWIDTH 14 0
BBX 4 7 6 11
BITMAP
70
70
70
70
60
E0
C0
ENDCHAR
STARTCHAR lozenge
ENCODING -1
SWIDTH 602 0
DWIDTH 14 0
BBX 12 23 1 -5
BITMAP
0600
0600
0F00
0900
1980
1080
30C0
2040
6060
4020
C030
8010
C030
4020
6060
2040
30C0
1080
1980
0900
0F00
0600
0600
ENDCHAR
STARTCHAR Ydieresis
ENCODING -1
SWIDTH 602 0
DWIDTH 14 0
BBX 14 21 0 0
BITMAP
0CC0
0CC0
0000
E01C
6018
3038
3030
1860
1CE0
0CC0
0780
0780
0300
0300
0300
0300
0300
0300
0300
0300
0300
ENDCHAR
STARTCHAR fraction
ENCODING -1
SWIDTH 602 0
DWIDTH 14 0
BBX 11 20 1 -2
BITMAP
0060
00C0
00C0
0180
0180
0180
0300
0300
0600
0600
0C00
0C00
1800
1800
3000
3000
3000
6000
6000
C000
ENDCHAR
STARTCHAR guilsinglleft
ENCODING -1
SWIDTH 602 0
DWIDTH 14 0
BBX 6 11 4 1
BITMAP
04
0C
1C
38
60
C0
60
38
1C
0C
04
ENDCHAR
STARTCHAR guilsinglright
ENCODING -1
SWIDTH 602 0
DWIDTH 14 0
BBX 6 11 5 1
BITMAP
80
C0
E0
70
18
0C
18
70
E0
C0
80
ENDCHAR
STARTCHAR fi
ENCODING -1
SWIDTH 602 0
DWIDTH 14 0
BBX 13 18 0 0
BITMAP
0F18
1F18
3018
3000
3000
FFF8
FFF8
3018
3018
3018
3018
3018
3018
3018
3018
3018
3018
3018
ENDCHAR
STARTCHAR fl
ENCODING -1
SWIDTH 602 0
DWIDTH 14 0
BBX 13 18 0 0
BITMAP
0FF8
1FF8
3018
3018
3018
FE18
FE18
3018
3018
3018
3018
3018
3018
3018
3018
3018
3018
3018
ENDCHAR
STARTCHAR daggerdbl
ENCODING -1
SWIDTH 602 0
DWIDTH 14 0
BBX 10 20 2 -2
BITMAP
0C00
0C00
0C00
0C00
0C00
FFC0
FFC0
0C00
0C00
0C00
0C00
0C00
0C00
FFC0
FFC0
0C00
0C00
0C00
0C00
0C00
ENDCHAR
STARTCHAR quotesinglbase
ENCODING -1
SWIDTH 602 0
DWIDTH 14 0
BBX 4 7 5 -3
BITMAP
70
70
70
70
60
E0
C0
ENDCHAR
STARTCHAR quotedblbase
ENCODING -1
SWIDTH 602 0
DWIDTH 14 0
BBX 9 7 3 -3
BITMAP
7380
7380
7380
7380
6300
E700
C600
ENDCHAR
STARTCHAR perthousand
ENCODING -1
SWIDTH 602 0
DWIDTH 14 0
BBX 15 18 0 0
BITMAP
3800
4400
8200
8200
8204
441C
3878
03C0
0F00
7800
4000
1C38
2244
4182
4182
4182
2244
1C38
ENDCHAR
STARTCHAR dotlessi
ENCODING -1
SWIDTH 602 0
DWIDTH 14 0
BBX 10 13 2 0
BITMAP
7C00
7C00
0C00
0C00
0C00
0C00
0C00
0C00
0C00
0C00
0C00
FFC0
FFC0
ENDCHAR
STARTCHAR circumflex
ENCODING -1
SWIDTH 602 0
DWIDTH 14 0
BBX 7 4 3 15
BITMAP
38
28
6C
C6
ENDCHAR
STARTCHAR tilde
ENCODING -1
SWIDTH 602 0
DWIDTH 14 0
BBX 8 3 3 16
BITMAP
71
99
8E
ENDCHAR
STARTCHAR breve
ENCODING -1
SWIDTH 602 0
DWIDTH 14 0
BBX 7 4 4 15
BITMAP
82
C6
7C
38
ENDCHAR
STARTCHAR dotaccent
ENCODING -1
SWIDTH 602 0
DWIDTH 14 0
BBX 2 2 6 16
BITMAP
C0
C0
ENDCHAR
STARTCHAR ring
ENCODING -1
SWIDTH 602 0
DWIDTH 14 0
BBX 6 6 4 15
BITMAP
78
CC
84
84
CC
78
ENDCHAR
STARTCHAR hungarumlaut
ENCODING -1
SWIDTH 602 0
DWIDTH 14 0
BBX 8 4 4 15
BITMAP
33
66
44
CC
ENDCHAR
STARTCHAR ogonek
ENCODING -1
SWIDTH 602 0
DWIDTH 14 0
BBX 4 5 5 -5
BITMAP
40
C0
C0
F0
70
ENDCHAR
STARTCHAR caron
ENCODING -1
SWIDTH 602 0
DWIDTH 14 0
BBX 7 4 3 15
BITMAP
C6
6C
28
38
ENDCHAR
STARTCHAR Lslash
ENCODING -1
SWIDTH 602 0
DWIDTH 14 0
BBX 12 18 0 0
BITMAP
6000
6000
6000
6000
6000
6200
6E00
7C00
7000
6000
E000
E000
6000
6000
6000
6000
7FF0
7FF0
ENDCHAR
STARTCHAR lslash
ENCODING -1
SWIDTH 602 0
DWIDTH 14 0
BBX 11 18 1 0
BITMAP
7C00
7C00
0C00
0C00
0C00
0CE0
0FC0
0F00
0C00
3C00
6C00
CC00
0C00
0C00
0C00
0E00
07E0
03E0
ENDCHAR
STARTCHAR Scaron
ENCODING -1
SWIDTH 602 0
DWIDTH 14 0
BBX 11 22 1 0
BITMAP
18C0
0D80
0700
0000
1F80
7FC0
6040
C000
C000
C000
C000
7000
7E00
1F80
01C0
00E0
0060
0060
0060
C0C0
FFC0
7F00
ENDCHAR
STARTCHAR scaron
ENCODING -1
SWIDTH 602 0
DWIDTH 14 0
BBX 11 19 2 0
BITMAP
6300
3600
1400
1C00
0000
0000
3F80
7FC0
E040
C000
E000
FE00
3FC0
03E0
0060
0060
C0E0
FFC0
3F00
ENDCHAR
STARTCHAR Zcaron
ENCODING -1
SWIDTH 602 0
DWIDTH 14 0
BBX 12 22 1 0
BITMAP
18C0
0D80
0700
0000
FFF0
FFF0
0070
00E0
00C0
01C0
0380
0300
0700
0E00
0C00
1C00
3800
3000
6000
E000
FFF0
FFF0
ENDCHAR
STARTCHAR zcaron
ENCODING -1
SWIDTH 602 0
DWIDTH 14 0
BBX 11 19 2 0
BITMAP
6300
3600
1400
1C00
0000
0000
FFE0
FFE0
00C0
01C0
0380
0700
0E00
1C00
3800
7000
6000
FFE0
FFE0
ENDCHAR
STARTCHAR minus
ENCODING -1
SWIDTH 602 0
DWIDTH 14 0
BBX 12 2 1 7
BITMAP
FFF0
FFF0
ENDCHAR
STARTCHAR Gbreve
ENCODING -1
SWIDTH 602 0
DWIDTH 14 0
BBX 12 22 1 0
BITMAP
1040
1FC0
0F80
0000
0FC0
1FE0
3820
6000
6000
C000
C000
C000
C000
C1F0
C1F0
C030
C030
6030
6030
3830
1FF0
0FC0
ENDCHAR
STARTCHAR gbreve
ENCODING -1
SWIDTH 602 0
DWIDTH 14 0
BBX 11 24 2 -5
BITMAP
2080
3180
1F00
0E00
0000
0000
1E60
3FE0
71E0
E0E0
C060
C060
C060
C060
C060
E0E0
71E0
3FE0
1E60
0060
0060
40C0
7F80
3F00
ENDCHAR
STARTCHAR Idotaccent
ENCODING -1
SWIDTH 602 0
DWIDTH 14 0
BBX 10 21 2 0
BITMAP
0C00
0C00
0000
FFC0
FFC0
0C00
0C00
0C00
0C00
0C00
0C00
0C00
0C00
0C00
0C00
0C00
0C00
0C00
0C00
FFC0
FFC0
ENDCHAR
STARTCHAR Scedilla
ENCODING -1
SWIDTH 602 0
DWIDTH 14 0
BBX 11 23 1 -5
BITMAP
1F80
7FC0
6040
C000
C000
C000
C000
7000
7E00
1F80
01C0
00E0
0060
0060
0060
C0C0
FFC0
7F00
0200
0300
0300
1F00
1E00
ENDCHAR
STARTCHAR scedilla
ENCODING -1
SWIDTH 602 0
DWIDTH 14 0
BBX 11 18 2 -5
BITMAP
3F80
7FC0
E040
C000
E000
FE00
3FC0
03E0
0060
0060
C0E0
FFC0
3F00
0400
0600
0600
3E00
3C00
ENDCHAR
STARTCHAR Cacute
ENCODING -1
SWIDTH 602 0
DWIDTH 14 0
BBX 11 22 1 0
BITMAP
00C0
0180
0300
0000
0FC0
1FE0
3820
6000
6000
C000
C000
C000
C000
C000
C000
C000
C000
6000
6000
3820
1FE0
0FC0
ENDCHAR
STARTCHAR cacute
ENCODING -1
SWIDTH 602 0
DWIDTH 14 0
BBX 10 19 2 0
BITMAP
00C0
0180
0300
0600
0000
0000
0F80
3FC0
7040
6000
C000
C000
C000
C000
C000
6000
7040
3FC0
1F80
ENDCHAR
STARTCHAR Ccaron
ENCODING -1
SWIDTH 602 0
DWIDTH 14 0
BBX 11 22 1 0
BITMAP
0C60
06C0
0380
0000
0FC0
1FE0
3820
6000
6000
C000
C000
C000
C000
C000
C000
C000
C000
6000
6000
3820
1FE0
0FC0
ENDCHAR
STARTCHAR ccaron
ENCODING -1
SWIDTH 602 0
DWIDTH 14 0
BBX 10 19 2 0
BITMAP
3180
1B00
0A00
0E00
0000
0000
0F80
3FC0
7040
6000
C000
C000
C000
C000
C000
6000
7040
3FC0
1F80
ENDCHAR
STARTCHAR dcroat
ENCODING -1
SWIDTH 602 0
DWIDTH 14 0
BBX 13 18 2 0
BITMAP
0060
0060
07F8
07F8
0060
1E60
3FE0
71E0
E0E0
C060
C060
C060
C060
C060
E0E0
71E0
3FE0
1E60
ENDCHAR
STARTCHAR periodcentered
ENCODING -1
SWIDTH 602 0
DWIDTH 14 0
BBX 3 4 6 6
BITMAP
E0
E0
E0
E0
ENDCHAR
STARTCHAR Euro
ENCODING -1
SWIDTH 602 0
DWIDTH 14 0
BBX 12 18 0 0
BITMAP
03E0
0FF0
1C10
1800
3800
3000
FFC0
FFC0
3000
3000
FF80
FF80
3000
3800
1800
1C10
0FF0
03E0
ENDCHAR
STARTCHAR c6459
ENCODING -1
SWIDTH 602 0
DWIDTH 14 0
BBX 6 2 4 15
BITMAP
CC
CC
ENDCHAR
STARTCHAR c6460
ENCODING -1
SWIDTH 602 0
DWIDTH 14 0
BBX 4 3 6 15
BITMAP
30
60
C0
ENDCHAR
STARTCHAR c6461
ENCODING -1
SWIDTH 602 0
DWIDTH 14 0
BBX 8 2 3 15
BITMAP
71
8E
ENDCHAR
STARTCHAR c6468
ENCODING -1
SWIDTH 602 0
DWIDTH 14 0
BBX 4 3 4 15
BITMAP
C0
60
30
ENDCHAR
STARTCHAR c6470
ENCODING -1
SWIDTH 602 0
DWIDTH 14 0
BBX 7 3 4 15
BITMAP
38
6C
C6
ENDCHAR
STARTCHAR c6472
ENCODING -1
SWIDTH 602 0
DWIDTH 14 0
BBX 7 3 4 15
BITMAP
C6
6C
38
ENDCHAR
STARTCHAR c6477
ENCODING -1
SWIDTH 602 0
DWIDTH 14 0
BBX 13 4 0 6
BITMAP
0018
03E0
3E00
C000
ENDCHAR
STARTCHAR c6478
ENCODING -1
SWIDTH 602 0
DWIDTH 14 0
BBX 7 10 3 8
BITMAP
0C
1C
1C
2C
6C
4C
8C
FE
0C
0C
ENDCHAR
STARTCHAR c6475
ENCODING -1
SWIDTH 602 0
DWIDTH 14 0
BBX 7 3 4 15
BITMAP
82
FE
7C
ENDCHAR
STARTCHAR c6476
ENCODING -1
SWIDTH 602 0
DWIDTH 14 0
BBX 2 2 6 15
BITMAP
C0
C0
ENDCHAR
ENDFONT
